<svg width="42" height="42" viewBox="0 0 42 42" fill="none" xmlns="http://www.w3.org/2000/svg">
<g id="tabler-icon-zoom-in-area-filled">
<g id="Vector">
<path d="M26.25 15.75C28.1772 15.7499 30.0673 16.2801 31.7132 17.2827C33.3591 18.2853 34.6973 19.7216 35.5812 21.4341C36.4652 23.1467 36.8607 25.0695 36.7246 26.9919C36.5884 28.9143 35.9258 30.7621 34.8093 32.333L39.7373 37.2628C40.0511 37.5777 40.2333 38.0003 40.2469 38.4447C40.2605 38.8891 40.1044 39.322 39.8103 39.6555C39.5163 39.989 39.1063 40.198 38.6637 40.2402C38.2211 40.2824 37.779 40.1545 37.4272 39.8825L37.2628 39.7373L32.333 34.8093C30.7894 35.9065 28.9778 36.5658 27.09 36.7174C25.2022 36.8689 23.3086 36.5071 21.6097 35.6702C19.9108 34.8333 18.4699 33.5525 17.4395 31.9635C16.4092 30.3744 15.8278 28.5363 15.757 26.6438L15.75 26.25L15.757 25.8563C15.8589 23.1415 17.009 20.5719 18.9657 18.6873C20.9224 16.8027 23.5333 15.7499 26.25 15.75ZM26.25 21C25.8214 21.0001 25.4077 21.1574 25.0873 21.4423C24.767 21.7271 24.5624 22.1196 24.5123 22.5453L24.5 22.75V24.5H22.75L22.5453 24.5123C22.1199 24.5628 21.7279 24.7677 21.4435 25.0879C21.159 25.4082 21.002 25.8217 21.002 26.25C21.002 26.6783 21.159 27.0918 21.4435 27.4121C21.7279 27.7323 22.1199 27.9372 22.5453 27.9878L22.75 28H24.5V29.75L24.5123 29.9548C24.5628 30.3801 24.7677 30.7721 25.0879 31.0565C25.4082 31.341 25.8217 31.4981 26.25 31.4981C26.6783 31.4981 27.0918 31.341 27.4121 31.0565C27.7323 30.7721 27.9372 30.3801 27.9878 29.9548L28 29.75V28H29.75L29.9548 27.9878C30.3801 27.9372 30.7721 27.7323 31.0565 27.4121C31.341 27.0918 31.4981 26.6783 31.4981 26.25C31.4981 25.8217 31.341 25.4082 31.0565 25.0879C30.7721 24.7677 30.3801 24.5628 29.9548 24.5123L29.75 24.5H28V22.75L27.9878 22.5453C27.9376 22.1196 27.733 21.7271 27.4127 21.4423C27.0923 21.1574 26.6786 21.0001 26.25 21Z" fill="#FEA203"/>
<path d="M5.25 24.5C5.67863 24.5001 6.09234 24.6574 6.41265 24.9423C6.73296 25.2271 6.9376 25.6196 6.98775 26.0453L7 26.25V28C7.00006 28.4286 7.15742 28.8423 7.44225 29.1627C7.72708 29.483 8.11956 29.6876 8.54525 29.7378L8.75 29.75H10.5C10.946 29.7505 11.3751 29.9213 11.6994 30.2275C12.0237 30.5337 12.2189 30.9522 12.2451 31.3974C12.2712 31.8427 12.1263 32.2812 11.84 32.6232C11.5538 32.9653 11.1477 33.1851 10.7048 33.2378L10.5 33.25H8.75C7.41088 33.2501 6.12235 32.7384 5.14804 31.8198C4.17374 30.9011 3.58731 29.6448 3.50875 28.308L3.5 28V26.25C3.5 25.7859 3.68437 25.3408 4.01256 25.0126C4.34075 24.6844 4.78587 24.5 5.25 24.5Z" fill="#FEA203"/>
<path d="M5.25 15.75C5.67863 15.7501 6.09234 15.9074 6.41265 16.1923C6.73296 16.4771 6.9376 16.8696 6.98775 17.2953L7 17.5V19.25C6.99951 19.696 6.82871 20.1251 6.52252 20.4494C6.21632 20.7737 5.79783 20.9689 5.35256 20.9951C4.90729 21.0212 4.46884 20.8763 4.12679 20.59C3.78475 20.3038 3.56493 19.8977 3.51225 19.4548L3.5 19.25V17.5C3.5 17.0359 3.68437 16.5908 4.01256 16.2626C4.34075 15.9344 4.78587 15.75 5.25 15.75Z" fill="#FEA203"/>
<path d="M10.5 3.5C10.946 3.50049 11.3751 3.67129 11.6994 3.97748C12.0237 4.28368 12.2189 4.70217 12.2451 5.14744C12.2712 5.59271 12.1263 6.03116 11.84 6.37321C11.5538 6.71525 11.1477 6.93507 10.7048 6.98775L10.5 7H8.75C8.32137 7.00006 7.90766 7.15742 7.58735 7.44225C7.26704 7.72708 7.0624 8.11956 7.01225 8.54525L7 8.75V10.5C6.99951 10.946 6.82871 11.3751 6.52252 11.6994C6.21632 12.0237 5.79783 12.2189 5.35256 12.2451C4.90729 12.2712 4.46884 12.1263 4.12679 11.84C3.78475 11.5538 3.56493 11.1477 3.51225 10.7048L3.5 10.5V8.75C3.49993 7.41088 4.01157 6.12235 4.93025 5.14804C5.84892 4.17374 7.10519 3.58731 8.442 3.50875L8.75 3.5H10.5Z" fill="#FEA203"/>
<path d="M19.2498 3.5C19.6958 3.50049 20.1248 3.67129 20.4492 3.97748C20.7735 4.28368 20.9687 4.70217 20.9948 5.14744C21.021 5.59271 20.8761 6.03116 20.5898 6.37321C20.3035 6.71525 19.8974 6.93507 19.4545 6.98775L19.2498 7H17.4998C17.0537 6.99951 16.6247 6.82871 16.3004 6.52252C15.976 6.21632 15.7809 5.79783 15.7547 5.35256C15.7286 4.90729 15.8735 4.46884 16.1597 4.12679C16.446 3.78475 16.8521 3.56493 17.295 3.51225L17.4998 3.5H19.2498Z" fill="#FEA203"/>
<path d="M27.9998 3.5C29.3389 3.49993 30.6274 4.01157 31.6017 4.93025C32.576 5.84892 33.1625 7.10519 33.241 8.442L33.2498 8.75V10.5C33.2493 10.946 33.0785 11.3751 32.7723 11.6994C32.4661 12.0237 32.0476 12.2189 31.6023 12.2451C31.1571 12.2712 30.7186 12.1263 30.3766 11.84C30.0345 11.5538 29.8147 11.1477 29.762 10.7048L29.7498 10.5V8.75C29.7497 8.32137 29.5923 7.90766 29.3075 7.58735C29.0227 7.26704 28.6302 7.0624 28.2045 7.01225L27.9998 7H26.2498C25.8037 6.99951 25.3747 6.82871 25.0504 6.52252C24.726 6.21632 24.5309 5.79783 24.5047 5.35256C24.4786 4.90729 24.6235 4.46884 24.9097 4.12679C25.196 3.78475 25.6021 3.56493 26.045 3.51225L26.2498 3.5H27.9998Z" fill="#FEA203"/>
<path d="M26.25 15.75C28.1772 15.7499 30.0673 16.2801 31.7132 17.2827C33.3591 18.2853 34.6973 19.7216 35.5812 21.4341C36.4652 23.1467 36.8607 25.0695 36.7246 26.9919C36.5884 28.9143 35.9258 30.7621 34.8093 32.333L39.7373 37.2628C40.0511 37.5777 40.2333 38.0003 40.2469 38.4447C40.2605 38.8891 40.1044 39.322 39.8103 39.6555C39.5163 39.989 39.1063 40.198 38.6637 40.2402C38.2211 40.2824 37.779 40.1545 37.4272 39.8825L37.2628 39.7373L32.333 34.8093C30.7894 35.9065 28.9778 36.5658 27.09 36.7174C25.2022 36.8689 23.3086 36.5071 21.6097 35.6702C19.9108 34.8333 18.4699 33.5525 17.4395 31.9635C16.4092 30.3744 15.8278 28.5363 15.757 26.6438L15.75 26.25L15.757 25.8563C15.8589 23.1415 17.009 20.5719 18.9657 18.6873C20.9224 16.8027 23.5333 15.7499 26.25 15.75ZM26.25 21C25.8214 21.0001 25.4077 21.1574 25.0873 21.4423C24.767 21.7271 24.5624 22.1196 24.5123 22.5453L24.5 22.75V24.5H22.75L22.5453 24.5123C22.1199 24.5628 21.7279 24.7677 21.4435 25.0879C21.159 25.4082 21.002 25.8217 21.002 26.25C21.002 26.6783 21.159 27.0918 21.4435 27.4121C21.7279 27.7323 22.1199 27.9372 22.5453 27.9878L22.75 28H24.5V29.75L24.5123 29.9548C24.5628 30.3801 24.7677 30.7721 25.0879 31.0565C25.4082 31.341 25.8217 31.4981 26.25 31.4981C26.6783 31.4981 27.0918 31.341 27.4121 31.0565C27.7323 30.7721 27.9372 30.3801 27.9878 29.9548L28 29.75V28H29.75L29.9548 27.9878C30.3801 27.9372 30.7721 27.7323 31.0565 27.4121C31.341 27.0918 31.4981 26.6783 31.4981 26.25C31.4981 25.8217 31.341 25.4082 31.0565 25.0879C30.7721 24.7677 30.3801 24.5628 29.9548 24.5123L29.75 24.5H28V22.75L27.9878 22.5453C27.9376 22.1196 27.733 21.7271 27.4127 21.4423C27.0923 21.1574 26.6786 21.0001 26.25 21Z" stroke="#FEA203"/>
<path d="M5.25 24.5C5.67863 24.5001 6.09234 24.6574 6.41265 24.9423C6.73296 25.2271 6.9376 25.6196 6.98775 26.0453L7 26.25V28C7.00006 28.4286 7.15742 28.8423 7.44225 29.1627C7.72708 29.483 8.11956 29.6876 8.54525 29.7378L8.75 29.75H10.5C10.946 29.7505 11.3751 29.9213 11.6994 30.2275C12.0237 30.5337 12.2189 30.9522 12.2451 31.3974C12.2712 31.8427 12.1263 32.2812 11.84 32.6232C11.5538 32.9653 11.1477 33.1851 10.7048 33.2378L10.5 33.25H8.75C7.41088 33.2501 6.12235 32.7384 5.14804 31.8198C4.17374 30.9011 3.58731 29.6448 3.50875 28.308L3.5 28V26.25C3.5 25.7859 3.68437 25.3408 4.01256 25.0126C4.34075 24.6844 4.78587 24.5 5.25 24.5Z" stroke="#FEA203"/>
<path d="M5.25 15.75C5.67863 15.7501 6.09234 15.9074 6.41265 16.1923C6.73296 16.4771 6.9376 16.8696 6.98775 17.2953L7 17.5V19.25C6.99951 19.696 6.82871 20.1251 6.52252 20.4494C6.21632 20.7737 5.79783 20.9689 5.35256 20.9951C4.90729 21.0212 4.46884 20.8763 4.12679 20.59C3.78475 20.3038 3.56493 19.8977 3.51225 19.4548L3.5 19.25V17.5C3.5 17.0359 3.68437 16.5908 4.01256 16.2626C4.34075 15.9344 4.78587 15.75 5.25 15.75Z" stroke="#FEA203"/>
<path d="M10.5 3.5C10.946 3.50049 11.3751 3.67129 11.6994 3.97748C12.0237 4.28368 12.2189 4.70217 12.2451 5.14744C12.2712 5.59271 12.1263 6.03116 11.84 6.37321C11.5538 6.71525 11.1477 6.93507 10.7048 6.98775L10.5 7H8.75C8.32137 7.00006 7.90766 7.15742 7.58735 7.44225C7.26704 7.72708 7.0624 8.11956 7.01225 8.54525L7 8.75V10.5C6.99951 10.946 6.82871 11.3751 6.52252 11.6994C6.21632 12.0237 5.79783 12.2189 5.35256 12.2451C4.90729 12.2712 4.46884 12.1263 4.12679 11.84C3.78475 11.5538 3.56493 11.1477 3.51225 10.7048L3.5 10.5V8.75C3.49993 7.41088 4.01157 6.12235 4.93025 5.14804C5.84892 4.17374 7.10519 3.58731 8.442 3.50875L8.75 3.5H10.5Z" stroke="#FEA203"/>
<path d="M19.2498 3.5C19.6958 3.50049 20.1248 3.67129 20.4492 3.97748C20.7735 4.28368 20.9687 4.70217 20.9948 5.14744C21.021 5.59271 20.8761 6.03116 20.5898 6.37321C20.3035 6.71525 19.8974 6.93507 19.4545 6.98775L19.2498 7H17.4998C17.0537 6.99951 16.6247 6.82871 16.3004 6.52252C15.976 6.21632 15.7809 5.79783 15.7547 5.35256C15.7286 4.90729 15.8735 4.46884 16.1597 4.12679C16.446 3.78475 16.8521 3.56493 17.295 3.51225L17.4998 3.5H19.2498Z" stroke="#FEA203"/>
<path d="M27.9998 3.5C29.3389 3.49993 30.6274 4.01157 31.6017 4.93025C32.576 5.84892 33.1625 7.10519 33.241 8.442L33.2498 8.75V10.5C33.2493 10.946 33.0785 11.3751 32.7723 11.6994C32.4661 12.0237 32.0476 12.2189 31.6023 12.2451C31.1571 12.2712 30.7186 12.1263 30.3766 11.84C30.0345 11.5538 29.8147 11.1477 29.762 10.7048L29.7498 10.5V8.75C29.7497 8.32137 29.5923 7.90766 29.3075 7.58735C29.0227 7.26704 28.6302 7.0624 28.2045 7.01225L27.9998 7H26.2498C25.8037 6.99951 25.3747 6.82871 25.0504 6.52252C24.726 6.21632 24.5309 5.79783 24.5047 5.35256C24.4786 4.90729 24.6235 4.46884 24.9097 4.12679C25.196 3.78475 25.6021 3.56493 26.045 3.51225L26.2498 3.5H27.9998Z" stroke="#FEA203"/>
</g>
</g>
</svg>
